<svg width="1660" height="1360" viewBox="0 0 1660 1360" fill="none" xmlns="http://www.w3.org/2000/svg">
<rect width="1660" height="1360" fill="#FFFFFF"/>
<text x="60" y="74" font-family="SF Pro Text, SF Pro, -apple-system, Helvetica Neue, sans-serif" font-size="34" font-weight="700" fill="#000000" text-anchor="start">Musafir — UI generated from Musafir-Xcode</text>
<text x="60" y="104" font-family="SF Pro Text, SF Pro, -apple-system, Helvetica Neue, sans-serif" font-size="15" font-weight="400" fill="#3C3C43" text-anchor="start" opacity="0.7">iPhone 402x874 pt · SF Pro · Color.purple accent</text>
<text x="60" y="158" font-family="SF Pro Text, SF Pro, -apple-system, Helvetica Neue, sans-serif" font-size="15" font-weight="600" fill="#000000" text-anchor="start">Explore · MapView</text>
<g transform="translate(60 176)">
<clipPath id="clip0"><rect width="402" height="874" rx="44"/></clipPath>
<g clip-path="url(#clip0)"><rect width="402" height="874" fill="#F2EFE9"/><path d="M0 470 L402 400 L402 560 L0 640 Z" fill="#AADAFF"/><rect x="40" y="170" width="85" height="90" rx="6" fill="#D8ECC0"/><rect x="220" y="640" width="120" height="90" rx="6" fill="#D8ECC0"/><rect x="0" y="60" width="402" height="10" fill="#FFFFFF"/><rect x="0" y="160" width="402" height="10" fill="#FFFFFF"/><rect x="0" y="260" width="402" height="10" fill="#FFFFFF"/><rect x="0" y="360" width="402" height="10" fill="#FFFFFF"/><rect x="0" y="460" width="402" height="10" fill="#FFFFFF"/><rect x="0" y="560" width="402" height="10" fill="#FFFFFF"/><rect x="0" y="660" width="402" height="10" fill="#FFFFFF"/><rect x="0" y="760" width="402" height="10" fill="#FFFFFF"/><rect x="0" y="860" width="402" height="10" fill="#FFFFFF"/><rect x="30" y="0" width="10" height="874" fill="#FFFFFF"/><rect x="125" y="0" width="10" height="874" fill="#FFFFFF"/><rect x="220" y="0" width="10" height="874" fill="#FFFFFF"/><rect x="315" y="0" width="10" height="874" fill="#FFFFFF"/><rect x="410" y="0" width="10" height="874" fill="#FFFFFF"/>
<g transform="translate(96 250)"><path d="M18 46c8-12 16-19 16-27a16 16 0 1 0-32 0c0 8 8 15 16 27Z" fill="#AF52DE"/><g transform="translate(8 9) scale(0.833333)"><path d="M14.6 3.2a8.4 8.4 0 1 0 6.2 10.2 6.9 6.9 0 0 1-6.2-10.2Z" fill="#FFFFFF"/><path d="m18.9 2.4.62 1.66 1.66.62-1.66.62-.62 1.66-.62-1.66-1.66-.62 1.66-.62.62-1.66Z" fill="#FFFFFF"/><path d="m21.4 7.6.42 1.1 1.1.42-1.1.42-.42 1.1-.42-1.1-1.1-.42 1.1-.42.42-1.1Z" fill="#FFFFFF"/></g></g>
<g transform="translate(250 330)"><path d="M18 46c8-12 16-19 16-27a16 16 0 1 0-32 0c0 8 8 15 16 27Z" fill="#AF52DE"/><g transform="translate(8 9) scale(0.833333)"><path d="M14.6 3.2a8.4 8.4 0 1 0 6.2 10.2 6.9 6.9 0 0 1-6.2-10.2Z" fill="#FFFFFF"/><path d="m18.9 2.4.62 1.66 1.66.62-1.66.62-.62 1.66-.62-1.66-1.66-.62 1.66-.62.62-1.66Z" fill="#FFFFFF"/><path d="m21.4 7.6.42 1.1 1.1.42-1.1.42-.42 1.1-.42-1.1-1.1-.42 1.1-.42.42-1.1Z" fill="#FFFFFF"/></g></g>
<g transform="translate(170 620)"><path d="M18 46c8-12 16-19 16-27a16 16 0 1 0-32 0c0 8 8 15 16 27Z" fill="#AF52DE"/><g transform="translate(8 9) scale(0.833333)"><path d="M14.6 3.2a8.4 8.4 0 1 0 6.2 10.2 6.9 6.9 0 0 1-6.2-10.2Z" fill="#FFFFFF"/><path d="m18.9 2.4.62 1.66 1.66.62-1.66.62-.62 1.66-.62-1.66-1.66-.62 1.66-.62.62-1.66Z" fill="#FFFFFF"/><path d="m21.4 7.6.42 1.1 1.1.42-1.1.42-.42 1.1-.42-1.1-1.1-.42 1.1-.42.42-1.1Z" fill="#FFFFFF"/></g></g>
<circle cx="201" cy="452" r="18" fill="#007AFF" fill-opacity="0.18"/><circle cx="201" cy="452" r="8" fill="#007AFF" stroke="#FFFFFF" stroke-width="3"/>
<rect width="402" height="100" fill="#FFFFFF" fill-opacity="0.82"/>
<path d="M0 100h402" stroke="#C6C6C8" stroke-opacity="0.6"/>
<g transform="translate(0 0)"><text x="60" y="26" font-family="SF Pro Text, SF Pro, -apple-system, Helvetica Neue, sans-serif" font-size="17" font-weight="600" fill="#000000" text-anchor="middle">9:41</text><path d="M303 22v-8M308 22v-11M313 22v-14M318 22v-17" stroke="#000000" stroke-width="3" stroke-linecap="round"/><path d="M331 20a10 10 0 0 1 14 0" stroke="#000000" stroke-width="2.6" stroke-linecap="round" fill="none"/><path d="M334.5 15.5a5.5 5.5 0 0 1 7 0" stroke="#000000" stroke-width="2.6" stroke-linecap="round" fill="none"/><circle cx="338" cy="23" r="1.6" fill="#000000"/><rect x="355" y="12" width="25" height="13" rx="4" stroke="#000000" stroke-opacity="0.4" fill="none"/><rect x="357" y="14" width="19" height="9" rx="2.5" fill="#000000"/><path d="M382 17v3" stroke="#000000" stroke-opacity="0.4" stroke-width="2" stroke-linecap="round"/></g>
<text x="201.0" y="79" font-family="SF Pro Text, SF Pro, -apple-system, Helvetica Neue, sans-serif" font-size="20" font-weight="700" fill="#AF52DE" text-anchor="middle">MUSAFIR</text>
<g transform="translate(302 600)"><circle cx="32.5" cy="32.5" r="32" fill="#FFFFFF" fill-opacity="0.72" stroke="#000000" stroke-opacity="0.08"/><g transform="translate(10 10) scale(1.875)"><circle cx="12" cy="12" r="9.1" stroke="#AF52DE" stroke-width="1.7"/><path d="M16.6 7.4 8 10.8a.5.5 0 0 0 .02.94l3.1 1.06a.6.6 0 0 1 .38.38l1.06 3.1a.5.5 0 0 0 .94.02l3.4-8.6a.5.5 0 0 0-.3-.28Z" fill="#AF52DE"/></g></g>
<g transform="translate(0 678)"><text x="24" y="15" font-family="SF Pro Text, SF Pro, -apple-system, Helvetica Neue, sans-serif" font-size="15" font-weight="700" fill="#000000" text-anchor="start">Nearby Mosque</text></g>
<g transform="translate(24 698)"><rect x="0.5" y="0.5" width="229" height="63" rx="16" fill="#FFFFFF" fill-opacity="0.82" stroke="#AF52DE" stroke-width="2"/><circle cx="32" cy="32" r="20" fill="#AF52DE" fill-opacity="0.15"/><g transform="translate(22 22) scale(0.833333)"><path d="M14.6 3.2a8.4 8.4 0 1 0 6.2 10.2 6.9 6.9 0 0 1-6.2-10.2Z" fill="#AF52DE"/><path d="m18.9 2.4.62 1.66 1.66.62-1.66.62-.62 1.66-.62-1.66-1.66-.62 1.66-.62.62-1.66Z" fill="#AF52DE"/><path d="m21.4 7.6.42 1.1 1.1.42-1.1.42-.42 1.1-.42-1.1-1.1-.42 1.1-.42.42-1.1Z" fill="#AF52DE"/></g><text x="64" y="29" font-family="SF Pro Text, SF Pro, -apple-system, Helvetica Neue, sans-serif" font-size="14" font-weight="700" fill="#000000" text-anchor="start">Masjid Agung</text><text x="64" y="47" font-family="SF Pro Text, SF Pro, -apple-system, Helvetica Neue, sans-serif" font-size="12" font-weight="400" fill="#3C3C43" text-anchor="start" opacity="0.6">420 m away</text></g>
<g transform="translate(266 698)"><rect x="0.5" y="0.5" width="229" height="63" rx="16" fill="#FFFFFF" fill-opacity="0.82" stroke="#000000" stroke-opacity="0.06"/><circle cx="32" cy="32" r="20" fill="#AF52DE" fill-opacity="0.15"/><g transform="translate(22 22) scale(0.833333)"><path d="M14.6 3.2a8.4 8.4 0 1 0 6.2 10.2 6.9 6.9 0 0 1-6.2-10.2Z" fill="#AF52DE"/><path d="m18.9 2.4.62 1.66 1.66.62-1.66.62-.62 1.66-.62-1.66-1.66-.62 1.66-.62.62-1.66Z" fill="#AF52DE"/><path d="m21.4 7.6.42 1.1 1.1.42-1.1.42-.42 1.1-.42-1.1-1.1-.42 1.1-.42.42-1.1Z" fill="#AF52DE"/></g><text x="64" y="29" font-family="SF Pro Text, SF Pro, -apple-system, Helvetica Neue, sans-serif" font-size="14" font-weight="700" fill="#000000" text-anchor="start">Masjid Al-Ikhlas</text><text x="64" y="47" font-family="SF Pro Text, SF Pro, -apple-system, Helvetica Neue, sans-serif" font-size="12" font-weight="400" fill="#3C3C43" text-anchor="start" opacity="0.6">1.2 km away</text></g>
<g transform="translate(508 698)"><rect x="0.5" y="0.5" width="229" height="63" rx="16" fill="#FFFFFF" fill-opacity="0.82" stroke="#000000" stroke-opacity="0.06"/><circle cx="32" cy="32" r="20" fill="#AF52DE" fill-opacity="0.15"/><g transform="translate(22 22) scale(0.833333)"><path d="M14.6 3.2a8.4 8.4 0 1 0 6.2 10.2 6.9 6.9 0 0 1-6.2-10.2Z" fill="#AF52DE"/><path d="m18.9 2.4.62 1.66 1.66.62-1.66.62-.62 1.66-.62-1.66-1.66-.62 1.66-.62.62-1.66Z" fill="#AF52DE"/><path d="m21.4 7.6.42 1.1 1.1.42-1.1.42-.42 1.1-.42-1.1-1.1-.42 1.1-.42.42-1.1Z" fill="#AF52DE"/></g><text x="64" y="29" font-family="SF Pro Text, SF Pro, -apple-system, Helvetica Neue, sans-serif" font-size="14" font-weight="700" fill="#000000" text-anchor="start">Musholla Nurul Iman</text><text x="64" y="47" font-family="SF Pro Text, SF Pro, -apple-system, Helvetica Neue, sans-serif" font-size="12" font-weight="400" fill="#3C3C43" text-anchor="start" opacity="0.6">1.8 km away</text></g>
<g transform="translate(0 779)"><rect x="99.0" y="8" width="204" height="62" rx="31" fill="#FFFFFF" fill-opacity="0.72" stroke="#000000" stroke-opacity="0.06"/><rect x="103.0" y="12" width="96" height="54" rx="27" fill="#AF52DE" fill-opacity="0.16"/><g opacity="1.0"><g transform="translate(139.0 18) scale(1)"><path d="M9 4 3 6.5v13.5L9 17.5 15 20 21 17.5V4L15 6.5 9 4Z" stroke="#AF52DE" stroke-width="1.7" stroke-linecap="round" stroke-linejoin="round"/><path d="M9 4v13.5" stroke="#AF52DE" stroke-width="1.7" stroke-linecap="round" stroke-linejoin="round"/><path d="M15 6.5V20" stroke="#AF52DE" stroke-width="1.7" stroke-linecap="round" stroke-linejoin="round"/></g></g><text x="151.0" y="60" font-family="SF Pro Text, SF Pro, -apple-system, Helvetica Neue, sans-serif" font-size="11" font-weight="500" fill="#AF52DE" text-anchor="middle">Explore</text><g opacity="0.6"><g transform="translate(239.0 18) scale(1)"><circle cx="12" cy="12" r="3.1" stroke="#3C3C43" stroke-width="1.7" stroke-linecap="round" stroke-linejoin="round"/><path d="M19.1 14.6a1.6 1.6 0 0 0 .32 1.76l.06.06a1.94 1.94 0 1 1-2.74 2.74l-.06-.06a1.6 1.6 0 0 0-1.76-.32 1.6 1.6 0 0 0-.97 1.46v.17a1.94 1.94 0 1 1-3.88 0v-.09a1.6 1.6 0 0 0-1.05-1.46 1.6 1.6 0 0 0-1.76.32l-.06.06A1.94 1.94 0 1 1 4.46 16.5l.06-.06a1.6 1.6 0 0 0 .32-1.76 1.6 1.6 0 0 0-1.46-.97H3.2a1.94 1.94 0 1 1 0-3.88h.09a1.6 1.6 0 0 0 1.46-1.05 1.6 1.6 0 0 0-.32-1.76l-.06-.06A1.94 1.94 0 1 1 7.11 4.2l.06.06a1.6 1.6 0 0 0 1.76.32h.08a1.6 1.6 0 0 0 .97-1.46V3.2a1.94 1.94 0 1 1 3.88 0v.09a1.6 1.6 0 0 0 .97 1.46 1.6 1.6 0 0 0 1.76-.32l.06-.06a1.94 1.94 0 1 1 2.74 2.74l-.06.06a1.6 1.6 0 0 0-.32 1.76v.08a1.6 1.6 0 0 0 1.46.97h.17a1.94 1.94 0 1 1 0 3.88h-.09a1.6 1.6 0 0 0-1.45.97Z" stroke="#3C3C43" stroke-width="1.7" stroke-linecap="round" stroke-linejoin="round"/></g></g><text x="251.0" y="60" font-family="SF Pro Text, SF Pro, -apple-system, Helvetica Neue, sans-serif" font-size="11" font-weight="500" fill="#3C3C43" text-anchor="middle" opacity="0.6">Configure</text></g>
<rect x="129.0" y="858" width="144" height="5" rx="2.5" fill="#000000" fill-opacity="0.85"/>
</g>
<rect x="0.5" y="0.5" width="401" height="873" rx="44" stroke="#C6C6C8"/>
</g>
<text x="522" y="158" font-family="SF Pro Text, SF Pro, -apple-system, Helvetica Neue, sans-serif" font-size="15" font-weight="600" fill="#000000" text-anchor="start">Configure · ConfigureView</text>
<g transform="translate(522 176)">
<clipPath id="clip1"><rect width="402" height="874" rx="44"/></clipPath>
<g clip-path="url(#clip1)"><rect width="402" height="874" fill="#F2F2F7"/>
<rect width="402" height="100" fill="#FFFFFF"/>
<path d="M0 100h402" stroke="#C6C6C8"/>
<g transform="translate(0 0)"><text x="60" y="26" font-family="SF Pro Text, SF Pro, -apple-system, Helvetica Neue, sans-serif" font-size="17" font-weight="600" fill="#000000" text-anchor="middle">9:41</text><path d="M303 22v-8M308 22v-11M313 22v-14M318 22v-17" stroke="#000000" stroke-width="3" stroke-linecap="round"/><path d="M331 20a10 10 0 0 1 14 0" stroke="#000000" stroke-width="2.6" stroke-linecap="round" fill="none"/><path d="M334.5 15.5a5.5 5.5 0 0 1 7 0" stroke="#000000" stroke-width="2.6" stroke-linecap="round" fill="none"/><circle cx="338" cy="23" r="1.6" fill="#000000"/><rect x="355" y="12" width="25" height="13" rx="4" stroke="#000000" stroke-opacity="0.4" fill="none"/><rect x="357" y="14" width="19" height="9" rx="2.5" fill="#000000"/><path d="M382 17v3" stroke="#000000" stroke-opacity="0.4" stroke-width="2" stroke-linecap="round"/></g>
<text x="201.0" y="79" font-family="SF Pro Text, SF Pro, -apple-system, Helvetica Neue, sans-serif" font-size="20" font-weight="700" fill="#AF52DE" text-anchor="middle">MUSAFIR</text>
<g transform="translate(0 120)"><rect x="24" y="112.0" width="354" height="56" rx="12" fill="#787880" fill-opacity="0.12"/><text x="201.0" y="151" font-family="SF Pro Text, SF Pro, -apple-system, Helvetica Neue, sans-serif" font-size="30" font-weight="700" fill="#000000" text-anchor="middle">Islam</text><text x="201.0" y="207" font-family="SF Pro Text, SF Pro, -apple-system, Helvetica Neue, sans-serif" font-size="30" font-weight="700" fill="#000000" text-anchor="middle" opacity="0.55">Kristen</text><text x="201.0" y="263" font-family="SF Pro Text, SF Pro, -apple-system, Helvetica Neue, sans-serif" font-size="30" font-weight="700" fill="#000000" text-anchor="middle" opacity="0.28">Katolik</text></g>
<g transform="translate(30 440)"><rect x="0.5" y="0.5" width="341" height="129" rx="16" fill="#FFFFFF" fill-opacity="0.92" stroke="#000000" stroke-opacity="0.05"/><text x="171.0" y="32" font-family="SF Pro Text, SF Pro, -apple-system, Helvetica Neue, sans-serif" font-size="14" font-weight="700" fill="#000000" text-anchor="middle">Every journey is easier when you never</text><text x="171.0" y="51" font-family="SF Pro Text, SF Pro, -apple-system, Helvetica Neue, sans-serif" font-size="14" font-weight="700" fill="#000000" text-anchor="middle">lose connection with your faith. Whether</text><text x="171.0" y="70" font-family="SF Pro Text, SF Pro, -apple-system, Helvetica Neue, sans-serif" font-size="14" font-weight="700" fill="#000000" text-anchor="middle">you're in an unfamiliar city or a foreign</text><text x="171.0" y="89" font-family="SF Pro Text, SF Pro, -apple-system, Helvetica Neue, sans-serif" font-size="14" font-weight="700" fill="#000000" text-anchor="middle">land we guide you to the nearest prayer</text><text x="171.0" y="108" font-family="SF Pro Text, SF Pro, -apple-system, Helvetica Neue, sans-serif" font-size="14" font-weight="700" fill="#000000" text-anchor="middle">space</text></g>
<g transform="translate(0 779)"><rect x="99.0" y="8" width="204" height="62" rx="31" fill="#FFFFFF" fill-opacity="0.72" stroke="#000000" stroke-opacity="0.06"/><g opacity="0.6"><g transform="translate(139.0 18) scale(1)"><path d="M9 4 3 6.5v13.5L9 17.5 15 20 21 17.5V4L15 6.5 9 4Z" stroke="#3C3C43" stroke-width="1.7" stroke-linecap="round" stroke-linejoin="round"/><path d="M9 4v13.5" stroke="#3C3C43" stroke-width="1.7" stroke-linecap="round" stroke-linejoin="round"/><path d="M15 6.5V20" stroke="#3C3C43" stroke-width="1.7" stroke-linecap="round" stroke-linejoin="round"/></g></g><text x="151.0" y="60" font-family="SF Pro Text, SF Pro, -apple-system, Helvetica Neue, sans-serif" font-size="11" font-weight="500" fill="#3C3C43" text-anchor="middle" opacity="0.6">Explore</text><rect x="203.0" y="12" width="96" height="54" rx="27" fill="#AF52DE" fill-opacity="0.16"/><g opacity="1.0"><g transform="translate(239.0 18) scale(1)"><circle cx="12" cy="12" r="3.1" stroke="#AF52DE" stroke-width="1.7" stroke-linecap="round" stroke-linejoin="round"/><path d="M19.1 14.6a1.6 1.6 0 0 0 .32 1.76l.06.06a1.94 1.94 0 1 1-2.74 2.74l-.06-.06a1.6 1.6 0 0 0-1.76-.32 1.6 1.6 0 0 0-.97 1.46v.17a1.94 1.94 0 1 1-3.88 0v-.09a1.6 1.6 0 0 0-1.05-1.46 1.6 1.6 0 0 0-1.76.32l-.06.06A1.94 1.94 0 1 1 4.46 16.5l.06-.06a1.6 1.6 0 0 0 .32-1.76 1.6 1.6 0 0 0-1.46-.97H3.2a1.94 1.94 0 1 1 0-3.88h.09a1.6 1.6 0 0 0 1.46-1.05 1.6 1.6 0 0 0-.32-1.76l-.06-.06A1.94 1.94 0 1 1 7.11 4.2l.06.06a1.6 1.6 0 0 0 1.76.32h.08a1.6 1.6 0 0 0 .97-1.46V3.2a1.94 1.94 0 1 1 3.88 0v.09a1.6 1.6 0 0 0 .97 1.46 1.6 1.6 0 0 0 1.76-.32l.06-.06a1.94 1.94 0 1 1 2.74 2.74l-.06.06a1.6 1.6 0 0 0-.32 1.76v.08a1.6 1.6 0 0 0 1.46.97h.17a1.94 1.94 0 1 1 0 3.88h-.09a1.6 1.6 0 0 0-1.45.97Z" stroke="#AF52DE" stroke-width="1.7" stroke-linecap="round" stroke-linejoin="round"/></g></g><text x="251.0" y="60" font-family="SF Pro Text, SF Pro, -apple-system, Helvetica Neue, sans-serif" font-size="11" font-weight="500" fill="#AF52DE" text-anchor="middle">Configure</text></g>
<rect x="129.0" y="858" width="144" height="5" rx="2.5" fill="#000000" fill-opacity="0.85"/>
</g>
<rect x="0.5" y="0.5" width="401" height="873" rx="44" stroke="#C6C6C8"/>
</g>
<text x="1010" y="158" font-family="SF Pro Text, SF Pro, -apple-system, Helvetica Neue, sans-serif" font-size="15" font-weight="600" fill="#000000" text-anchor="start">Components</text>
<text x="1010" y="190" font-family="SF Pro Text, SF Pro, -apple-system, Helvetica Neue, sans-serif" font-size="12" font-weight="500" fill="#3C3C43" text-anchor="start" opacity="0.7">Icons (SF Symbols used in code)</text>
<g transform="translate(1010 206) scale(1)"><path d="M9 4 3 6.5v13.5L9 17.5 15 20 21 17.5V4L15 6.5 9 4Z" stroke="#000000" stroke-width="1.7" stroke-linecap="round" stroke-linejoin="round"/><path d="M9 4v13.5" stroke="#000000" stroke-width="1.7" stroke-linecap="round" stroke-linejoin="round"/><path d="M15 6.5V20" stroke="#000000" stroke-width="1.7" stroke-linecap="round" stroke-linejoin="round"/></g>
<text x="1022" y="248" font-family="SF Pro Text, SF Pro, -apple-system, Helvetica Neue, sans-serif" font-size="8" font-weight="400" fill="#3C3C43" text-anchor="middle" opacity="0.6">map</text>
<g transform="translate(1054 206) scale(1)"><circle cx="12" cy="12" r="3.1" stroke="#000000" stroke-width="1.7" stroke-linecap="round" stroke-linejoin="round"/><path d="M19.1 14.6a1.6 1.6 0 0 0 .32 1.76l.06.06a1.94 1.94 0 1 1-2.74 2.74l-.06-.06a1.6 1.6 0 0 0-1.76-.32 1.6 1.6 0 0 0-.97 1.46v.17a1.94 1.94 0 1 1-3.88 0v-.09a1.6 1.6 0 0 0-1.05-1.46 1.6 1.6 0 0 0-1.76.32l-.06.06A1.94 1.94 0 1 1 4.46 16.5l.06-.06a1.6 1.6 0 0 0 .32-1.76 1.6 1.6 0 0 0-1.46-.97H3.2a1.94 1.94 0 1 1 0-3.88h.09a1.6 1.6 0 0 0 1.46-1.05 1.6 1.6 0 0 0-.32-1.76l-.06-.06A1.94 1.94 0 1 1 7.11 4.2l.06.06a1.6 1.6 0 0 0 1.76.32h.08a1.6 1.6 0 0 0 .97-1.46V3.2a1.94 1.94 0 1 1 3.88 0v.09a1.6 1.6 0 0 0 .97 1.46 1.6 1.6 0 0 0 1.76-.32l.06-.06a1.94 1.94 0 1 1 2.74 2.74l-.06.06a1.6 1.6 0 0 0-.32 1.76v.08a1.6 1.6 0 0 0 1.46.97h.17a1.94 1.94 0 1 1 0 3.88h-.09a1.6 1.6 0 0 0-1.45.97Z" stroke="#000000" stroke-width="1.7" stroke-linecap="round" stroke-linejoin="round"/></g>
<text x="1066" y="248" font-family="SF Pro Text, SF Pro, -apple-system, Helvetica Neue, sans-serif" font-size="8" font-weight="400" fill="#3C3C43" text-anchor="middle" opacity="0.6">gearshape</text>
<g transform="translate(1098 206) scale(1)"><circle cx="12" cy="12" r="9.1" stroke="#000000" stroke-width="1.7"/><path d="M16.6 7.4 8 10.8a.5.5 0 0 0 .02.94l3.1 1.06a.6.6 0 0 1 .38.38l1.06 3.1a.5.5 0 0 0 .94.02l3.4-8.6a.5.5 0 0 0-.3-.28Z" fill="#000000"/></g>
<text x="1110" y="248" font-family="SF Pro Text, SF Pro, -apple-system, Helvetica Neue, sans-serif" font-size="8" font-weight="400" fill="#3C3C43" text-anchor="middle" opacity="0.6">location</text>
<g transform="translate(1142 206) scale(1)"><circle cx="12" cy="12" r="9.6" fill="#000000"/><path d="M16.6 7.4 8 10.8a.5.5 0 0 0 .02.94l3.1 1.06a.6.6 0 0 1 .38.38l1.06 3.1a.5.5 0 0 0 .94.02l3.4-8.6a.5.5 0 0 0-.3-.28Z" fill="#FFFFFF"/></g>
<text x="1154" y="248" font-family="SF Pro Text, SF Pro, -apple-system, Helvetica Neue, sans-serif" font-size="8" font-weight="400" fill="#3C3C43" text-anchor="middle" opacity="0.6">location</text>
<g transform="translate(1186 206) scale(1)"><path d="M14.6 3.2a8.4 8.4 0 1 0 6.2 10.2 6.9 6.9 0 0 1-6.2-10.2Z" fill="#000000"/><path d="m18.9 2.4.62 1.66 1.66.62-1.66.62-.62 1.66-.62-1.66-1.66-.62 1.66-.62.62-1.66Z" fill="#000000"/><path d="m21.4 7.6.42 1.1 1.1.42-1.1.42-.42 1.1-.42-1.1-1.1-.42 1.1-.42.42-1.1Z" fill="#000000"/></g>
<text x="1198" y="248" font-family="SF Pro Text, SF Pro, -apple-system, Helvetica Neue, sans-serif" font-size="8" font-weight="400" fill="#3C3C43" text-anchor="middle" opacity="0.6">moon</text>
<g transform="translate(1230 206) scale(1)"><path d="M10.1 2.6h3.8a.9.9 0 0 1 .9.9v4.4h4.4a.9.9 0 0 1 .9.9v3.8a.9.9 0 0 1-.9.9h-4.4v7.9a.9.9 0 0 1-.9.9h-3.8a.9.9 0 0 1-.9-.9v-7.9H4.8a.9.9 0 0 1-.9-.9V8.8a.9.9 0 0 1 .9-.9h4.4V3.5a.9.9 0 0 1 .9-.9Z" fill="#000000"/></g>
<text x="1242" y="248" font-family="SF Pro Text, SF Pro, -apple-system, Helvetica Neue, sans-serif" font-size="8" font-weight="400" fill="#3C3C43" text-anchor="middle" opacity="0.6">cross</text>
<g transform="translate(1274 206) scale(1)"><path d="M12.6 2.2c.9 3.1-.5 4.7-1.9 6.2-1.5 1.6-3 3.1-3 6.1a6.3 6.3 0 0 0 12.6.3c0-4.5-3.2-6.4-4.6-9.1a10 10 0 0 1-.7-1.8 12 12 0 0 0-2.4-1.7Z" fill="#000000"/><path d="M11.4 12.5c.5 1.6-.3 2.4-1 3.2-.6.7-1.2 1.4-1.2 2.6a3.2 3.2 0 0 0 6.4 0c0-2-1.4-3-2.2-4.2a5 5 0 0 1-.4-.9 6 6 0 0 0-1.6-.7Z" fill="#FFFFFF" opacity="0.9"/></g>
<text x="1286" y="248" font-family="SF Pro Text, SF Pro, -apple-system, Helvetica Neue, sans-serif" font-size="8" font-weight="400" fill="#3C3C43" text-anchor="middle" opacity="0.6">flame</text>
<text x="1010" y="300" font-family="SF Pro Text, SF Pro, -apple-system, Helvetica Neue, sans-serif" font-size="12" font-weight="500" fill="#3C3C43" text-anchor="start" opacity="0.7">Nav title</text>
<g transform="translate(1010 308)"><text x="0" y="26" font-family="SF Pro Text, SF Pro, -apple-system, Helvetica Neue, sans-serif" font-size="20" font-weight="700" fill="#AF52DE" text-anchor="start">MUSAFIR</text></g>
<text x="1010" y="372" font-family="SF Pro Text, SF Pro, -apple-system, Helvetica Neue, sans-serif" font-size="12" font-weight="500" fill="#3C3C43" text-anchor="start" opacity="0.7">Tab bar — Selected=Explore / Configure</text>
<g transform="translate(1010 380)"><g transform="translate(0 0)"><rect x="99.0" y="8" width="204" height="62" rx="31" fill="#FFFFFF" fill-opacity="0.72" stroke="#000000" stroke-opacity="0.06"/><rect x="103.0" y="12" width="96" height="54" rx="27" fill="#AF52DE" fill-opacity="0.16"/><g opacity="1.0"><g transform="translate(139.0 18) scale(1)"><path d="M9 4 3 6.5v13.5L9 17.5 15 20 21 17.5V4L15 6.5 9 4Z" stroke="#AF52DE" stroke-width="1.7" stroke-linecap="round" stroke-linejoin="round"/><path d="M9 4v13.5" stroke="#AF52DE" stroke-width="1.7" stroke-linecap="round" stroke-linejoin="round"/><path d="M15 6.5V20" stroke="#AF52DE" stroke-width="1.7" stroke-linecap="round" stroke-linejoin="round"/></g></g><text x="151.0" y="60" font-family="SF Pro Text, SF Pro, -apple-system, Helvetica Neue, sans-serif" font-size="11" font-weight="500" fill="#AF52DE" text-anchor="middle">Explore</text><g opacity="0.6"><g transform="translate(239.0 18) scale(1)"><circle cx="12" cy="12" r="3.1" stroke="#3C3C43" stroke-width="1.7" stroke-linecap="round" stroke-linejoin="round"/><path d="M19.1 14.6a1.6 1.6 0 0 0 .32 1.76l.06.06a1.94 1.94 0 1 1-2.74 2.74l-.06-.06a1.6 1.6 0 0 0-1.76-.32 1.6 1.6 0 0 0-.97 1.46v.17a1.94 1.94 0 1 1-3.88 0v-.09a1.6 1.6 0 0 0-1.05-1.46 1.6 1.6 0 0 0-1.76.32l-.06.06A1.94 1.94 0 1 1 4.46 16.5l.06-.06a1.6 1.6 0 0 0 .32-1.76 1.6 1.6 0 0 0-1.46-.97H3.2a1.94 1.94 0 1 1 0-3.88h.09a1.6 1.6 0 0 0 1.46-1.05 1.6 1.6 0 0 0-.32-1.76l-.06-.06A1.94 1.94 0 1 1 7.11 4.2l.06.06a1.6 1.6 0 0 0 1.76.32h.08a1.6 1.6 0 0 0 .97-1.46V3.2a1.94 1.94 0 1 1 3.88 0v.09a1.6 1.6 0 0 0 .97 1.46 1.6 1.6 0 0 0 1.76-.32l.06-.06a1.94 1.94 0 1 1 2.74 2.74l-.06.06a1.6 1.6 0 0 0-.32 1.76v.08a1.6 1.6 0 0 0 1.46.97h.17a1.94 1.94 0 1 1 0 3.88h-.09a1.6 1.6 0 0 0-1.45.97Z" stroke="#3C3C43" stroke-width="1.7" stroke-linecap="round" stroke-linejoin="round"/></g></g><text x="251.0" y="60" font-family="SF Pro Text, SF Pro, -apple-system, Helvetica Neue, sans-serif" font-size="11" font-weight="500" fill="#3C3C43" text-anchor="middle" opacity="0.6">Configure</text></g></g>
<g transform="translate(1010 480)"><g transform="translate(0 0)"><rect x="99.0" y="8" width="204" height="62" rx="31" fill="#FFFFFF" fill-opacity="0.72" stroke="#000000" stroke-opacity="0.06"/><g opacity="0.6"><g transform="translate(139.0 18) scale(1)"><path d="M9 4 3 6.5v13.5L9 17.5 15 20 21 17.5V4L15 6.5 9 4Z" stroke="#3C3C43" stroke-width="1.7" stroke-linecap="round" stroke-linejoin="round"/><path d="M9 4v13.5" stroke="#3C3C43" stroke-width="1.7" stroke-linecap="round" stroke-linejoin="round"/><path d="M15 6.5V20" stroke="#3C3C43" stroke-width="1.7" stroke-linecap="round" stroke-linejoin="round"/></g></g><text x="151.0" y="60" font-family="SF Pro Text, SF Pro, -apple-system, Helvetica Neue, sans-serif" font-size="11" font-weight="500" fill="#3C3C43" text-anchor="middle" opacity="0.6">Explore</text><rect x="203.0" y="12" width="96" height="54" rx="27" fill="#AF52DE" fill-opacity="0.16"/><g opacity="1.0"><g transform="translate(239.0 18) scale(1)"><circle cx="12" cy="12" r="3.1" stroke="#AF52DE" stroke-width="1.7" stroke-linecap="round" stroke-linejoin="round"/><path d="M19.1 14.6a1.6 1.6 0 0 0 .32 1.76l.06.06a1.94 1.94 0 1 1-2.74 2.74l-.06-.06a1.6 1.6 0 0 0-1.76-.32 1.6 1.6 0 0 0-.97 1.46v.17a1.94 1.94 0 1 1-3.88 0v-.09a1.6 1.6 0 0 0-1.05-1.46 1.6 1.6 0 0 0-1.76.32l-.06.06A1.94 1.94 0 1 1 4.46 16.5l.06-.06a1.6 1.6 0 0 0 .32-1.76 1.6 1.6 0 0 0-1.46-.97H3.2a1.94 1.94 0 1 1 0-3.88h.09a1.6 1.6 0 0 0 1.46-1.05 1.6 1.6 0 0 0-.32-1.76l-.06-.06A1.94 1.94 0 1 1 7.11 4.2l.06.06a1.6 1.6 0 0 0 1.76.32h.08a1.6 1.6 0 0 0 .97-1.46V3.2a1.94 1.94 0 1 1 3.88 0v.09a1.6 1.6 0 0 0 .97 1.46 1.6 1.6 0 0 0 1.76-.32l.06-.06a1.94 1.94 0 1 1 2.74 2.74l-.06.06a1.6 1.6 0 0 0-.32 1.76v.08a1.6 1.6 0 0 0 1.46.97h.17a1.94 1.94 0 1 1 0 3.88h-.09a1.6 1.6 0 0 0-1.45.97Z" stroke="#AF52DE" stroke-width="1.7" stroke-linecap="round" stroke-linejoin="round"/></g></g><text x="251.0" y="60" font-family="SF Pro Text, SF Pro, -apple-system, Helvetica Neue, sans-serif" font-size="11" font-weight="500" fill="#AF52DE" text-anchor="middle">Configure</text></g></g>
<text x="1010" y="604" font-family="SF Pro Text, SF Pro, -apple-system, Helvetica Neue, sans-serif" font-size="12" font-weight="500" fill="#3C3C43" text-anchor="start" opacity="0.7">Recenter button — Idle / Recentering</text>
<g transform="translate(1010 616)"><circle cx="32.5" cy="32.5" r="32" fill="#FFFFFF" fill-opacity="0.72" stroke="#000000" stroke-opacity="0.08"/><g transform="translate(10 10) scale(1.875)"><circle cx="12" cy="12" r="9.1" stroke="#AF52DE" stroke-width="1.7"/><path d="M16.6 7.4 8 10.8a.5.5 0 0 0 .02.94l3.1 1.06a.6.6 0 0 1 .38.38l1.06 3.1a.5.5 0 0 0 .94.02l3.4-8.6a.5.5 0 0 0-.3-.28Z" fill="#AF52DE"/></g></g>
<g transform="translate(1100 616)"><circle cx="32.5" cy="32.5" r="32" fill="#FFFFFF" fill-opacity="0.72" stroke="#000000" stroke-opacity="0.08"/><g transform="translate(10 10) scale(1.875)"><circle cx="12" cy="12" r="9.6" fill="#AF52DE"/><path d="M16.6 7.4 8 10.8a.5.5 0 0 0 .02.94l3.1 1.06a.6.6 0 0 1 .38.38l1.06 3.1a.5.5 0 0 0 .94.02l3.4-8.6a.5.5 0 0 0-.3-.28Z" fill="#FFFFFF"/></g></g>
<text x="1010" y="712" font-family="SF Pro Text, SF Pro, -apple-system, Helvetica Neue, sans-serif" font-size="12" font-weight="500" fill="#3C3C43" text-anchor="start" opacity="0.7">Nearby header</text>
<g transform="translate(986 722)"><g transform="translate(0 0)"><text x="24" y="15" font-family="SF Pro Text, SF Pro, -apple-system, Helvetica Neue, sans-serif" font-size="15" font-weight="700" fill="#000000" text-anchor="start">Nearby Mosque</text></g></g>
<text x="1010" y="764" font-family="SF Pro Text, SF Pro, -apple-system, Helvetica Neue, sans-serif" font-size="12" font-weight="500" fill="#3C3C43" text-anchor="start" opacity="0.7">Place card — Selected=False / True</text>
<g transform="translate(1010 776)"><rect x="0.5" y="0.5" width="229" height="63" rx="16" fill="#FFFFFF" fill-opacity="0.82" stroke="#000000" stroke-opacity="0.06"/><circle cx="32" cy="32" r="20" fill="#AF52DE" fill-opacity="0.15"/><g transform="translate(22 22) scale(0.833333)"><path d="M14.6 3.2a8.4 8.4 0 1 0 6.2 10.2 6.9 6.9 0 0 1-6.2-10.2Z" fill="#AF52DE"/><path d="m18.9 2.4.62 1.66 1.66.62-1.66.62-.62 1.66-.62-1.66-1.66-.62 1.66-.62.62-1.66Z" fill="#AF52DE"/><path d="m21.4 7.6.42 1.1 1.1.42-1.1.42-.42 1.1-.42-1.1-1.1-.42 1.1-.42.42-1.1Z" fill="#AF52DE"/></g><text x="64" y="29" font-family="SF Pro Text, SF Pro, -apple-system, Helvetica Neue, sans-serif" font-size="14" font-weight="700" fill="#000000" text-anchor="start">Masjid Agung</text><text x="64" y="47" font-family="SF Pro Text, SF Pro, -apple-system, Helvetica Neue, sans-serif" font-size="12" font-weight="400" fill="#3C3C43" text-anchor="start" opacity="0.6">420 m away</text></g>
<g transform="translate(1260 776)"><rect x="0.5" y="0.5" width="229" height="63" rx="16" fill="#FFFFFF" fill-opacity="0.82" stroke="#AF52DE" stroke-width="2"/><circle cx="32" cy="32" r="20" fill="#AF52DE" fill-opacity="0.15"/><g transform="translate(22 22) scale(0.833333)"><path d="M14.6 3.2a8.4 8.4 0 1 0 6.2 10.2 6.9 6.9 0 0 1-6.2-10.2Z" fill="#AF52DE"/><path d="m18.9 2.4.62 1.66 1.66.62-1.66.62-.62 1.66-.62-1.66-1.66-.62 1.66-.62.62-1.66Z" fill="#AF52DE"/><path d="m21.4 7.6.42 1.1 1.1.42-1.1.42-.42 1.1-.42-1.1-1.1-.42 1.1-.42.42-1.1Z" fill="#AF52DE"/></g><text x="64" y="29" font-family="SF Pro Text, SF Pro, -apple-system, Helvetica Neue, sans-serif" font-size="14" font-weight="700" fill="#000000" text-anchor="start">Masjid Al-Ikhlas</text><text x="64" y="47" font-family="SF Pro Text, SF Pro, -apple-system, Helvetica Neue, sans-serif" font-size="12" font-weight="400" fill="#3C3C43" text-anchor="start" opacity="0.6">1.2 km away</text></g>
<text x="1010" y="860" font-family="SF Pro Text, SF Pro, -apple-system, Helvetica Neue, sans-serif" font-size="12" font-weight="500" fill="#3C3C43" text-anchor="start" opacity="0.7">Religion wheel (Picker .wheel)</text>
<rect x="1010" y="872" width="402" height="280" rx="16" fill="#F2F2F7"/>
<g transform="translate(1010 872)"><g transform="translate(0 0)"><rect x="24" y="112.0" width="354" height="56" rx="12" fill="#787880" fill-opacity="0.12"/><text x="201.0" y="151" font-family="SF Pro Text, SF Pro, -apple-system, Helvetica Neue, sans-serif" font-size="30" font-weight="700" fill="#000000" text-anchor="middle">Islam</text><text x="201.0" y="207" font-family="SF Pro Text, SF Pro, -apple-system, Helvetica Neue, sans-serif" font-size="30" font-weight="700" fill="#000000" text-anchor="middle" opacity="0.55">Kristen</text><text x="201.0" y="263" font-family="SF Pro Text, SF Pro, -apple-system, Helvetica Neue, sans-serif" font-size="30" font-weight="700" fill="#000000" text-anchor="middle" opacity="0.28">Katolik</text></g></g>
<text x="1010" y="1172" font-family="SF Pro Text, SF Pro, -apple-system, Helvetica Neue, sans-serif" font-size="12" font-weight="500" fill="#3C3C43" text-anchor="start" opacity="0.7">About card</text>
<g transform="translate(1010 1184)"><rect x="0.5" y="0.5" width="341" height="129" rx="16" fill="#FFFFFF" fill-opacity="0.92" stroke="#000000" stroke-opacity="0.05"/><text x="171.0" y="32" font-family="SF Pro Text, SF Pro, -apple-system, Helvetica Neue, sans-serif" font-size="14" font-weight="700" fill="#000000" text-anchor="middle">Every journey is easier when you never</text><text x="171.0" y="51" font-family="SF Pro Text, SF Pro, -apple-system, Helvetica Neue, sans-serif" font-size="14" font-weight="700" fill="#000000" text-anchor="middle">lose connection with your faith. Whether</text><text x="171.0" y="70" font-family="SF Pro Text, SF Pro, -apple-system, Helvetica Neue, sans-serif" font-size="14" font-weight="700" fill="#000000" text-anchor="middle">you're in an unfamiliar city or a foreign</text><text x="171.0" y="89" font-family="SF Pro Text, SF Pro, -apple-system, Helvetica Neue, sans-serif" font-size="14" font-weight="700" fill="#000000" text-anchor="middle">land we guide you to the nearest prayer</text><text x="171.0" y="108" font-family="SF Pro Text, SF Pro, -apple-system, Helvetica Neue, sans-serif" font-size="14" font-weight="700" fill="#000000" text-anchor="middle">space</text></g>
</svg>
